<svg width="171" height="72" viewBox="0 0 171 72" fill="none" xmlns="http://www.w3.org/2000/svg">
<path d="M34.608 19.304L22.656 53H12.384L0.432 19.304H9.168L17.52 44.744L25.92 19.304H34.608ZM50.2305 53.384C47.6065 53.384 45.2385 52.824 43.1265 51.704C41.0465 50.584 39.3985 48.984 38.1825 46.904C36.9985 44.824 36.4065 42.392 36.4065 39.608C36.4065 36.856 37.0145 34.44 38.2305 32.36C39.4465 30.248 41.1105 28.632 43.2225 27.512C45.3345 26.392 47.7025 25.832 50.3265 25.832C52.9505 25.832 55.3185 26.392 57.4305 27.512C59.5425 28.632 61.2065 30.248 62.4225 32.36C63.6385 34.44 64.2465 36.856 64.2465 39.608C64.2465 42.36 63.6225 44.792 62.3745 46.904C61.1585 48.984 59.4785 50.584 57.3345 51.704C55.2225 52.824 52.8545 53.384 50.2305 53.384ZM50.2305 46.28C51.7985 46.28 53.1265 45.704 54.2145 44.552C55.3345 43.4 55.8945 41.752 55.8945 39.608C55.8945 37.464 55.3505 35.816 54.2625 34.664C53.2065 33.512 51.8945 32.936 50.3265 32.936C48.7265 32.936 47.3985 33.512 46.3425 34.664C45.2865 35.784 44.7585 37.432 44.7585 39.608C44.7585 41.752 45.2705 43.4 46.2945 44.552C47.3505 45.704 48.6625 46.28 50.2305 46.28ZM83.529 46.04V53H79.353C76.377 53 74.057 52.28 72.393 50.84C70.729 49.368 69.897 46.984 69.897 43.688V33.032H66.633V26.216H69.897V19.688H78.105V26.216H83.481V33.032H78.105V43.784C78.105 44.584 78.297 45.16 78.681 45.512C79.065 45.864 79.705 46.04 80.601 46.04H83.529ZM113.349 39.176C113.349 39.944 113.301 40.744 113.205 41.576H94.629C94.757 43.24 95.285 44.52 96.213 45.416C97.173 46.28 98.341 46.712 99.717 46.712C101.765 46.712 103.189 45.848 103.989 44.12H112.725C112.277 45.88 111.461 47.464 110.277 48.872C109.125 50.28 107.669 51.384 105.909 52.184C104.149 52.984 102.181 53.384 100.005 53.384C97.381 53.384 95.045 52.824 92.997 51.704C90.949 50.584 89.349 48.984 88.197 46.904C87.045 44.824 86.469 42.392 86.469 39.608C86.469 36.824 87.029 34.392 88.149 32.312C89.301 30.232 90.901 28.632 92.949 27.512C94.997 26.392 97.349 25.832 100.005 25.832C102.597 25.832 104.901 26.376 106.917 27.464C108.933 28.552 110.501 30.104 111.621 32.12C112.773 34.136 113.349 36.488 113.349 39.176ZM104.949 37.016C104.949 35.608 104.469 34.488 103.509 33.656C102.549 32.824 101.349 32.408 99.909 32.408C98.533 32.408 97.365 32.808 96.405 33.608C95.477 34.408 94.901 35.544 94.677 37.016H104.949Z" fill="white"/>
<g clip-path="url(#clip0)">
<path d="M168.85 24.9075L160.362 16.4305C160.186 16.2547 159.948 16.1562 159.699 16.1562H157.67L160.082 13.7433C160.449 13.377 160.449 12.7834 160.082 12.4176L152.94 5.27466C152.573 4.90845 151.98 4.90845 151.614 5.27466L148.648 8.24096L140.722 16.1661C140.68 16.1602 140.637 16.1562 140.594 16.1562H134.284C134.035 16.1562 133.797 16.2551 133.621 16.4312L125.15 24.9079C124.98 25.0774 124.875 25.3122 124.875 25.5711V52.0623C124.875 52.5802 125.295 52.9998 125.813 52.9998H168.188C168.706 52.9998 169.125 52.5802 169.125 52.0623V42.5669C169.125 42.0491 168.706 41.6294 168.188 41.6294C167.67 41.6294 167.25 42.0491 167.25 42.5669V51.1248H126.75V26.5086H167.25V35.0665C167.25 35.5844 167.67 36.004 168.188 36.004C168.706 36.004 169.125 35.5844 169.125 35.0665V25.5711C169.125 25.3118 169.02 25.0774 168.85 24.9075ZM149.973 9.56663L152.277 7.26318L158.094 13.0804L150.779 20.3947H143.06L141.102 18.4377L149.973 9.56663ZM128.075 24.6336L134.673 18.0312H138.932C138.764 18.3802 138.824 18.8112 139.113 19.1005L140.408 20.3947H137.452C136.934 20.3947 136.515 20.8148 136.515 21.3322C136.515 21.85 136.934 22.2697 137.452 22.2697H156.548C157.066 22.2697 157.485 21.85 157.485 21.3322C157.485 20.8148 157.066 20.3947 156.548 20.3947H153.431L155.795 18.0312H159.311L165.922 24.6336H128.075Z" fill="white"/>
<path d="M138.75 38.8166C138.75 43.3656 142.451 47.0669 147 47.0669C151.549 47.0669 155.25 43.3656 155.25 38.8166C155.25 34.2679 151.549 30.5666 147 30.5666C142.451 30.5666 138.75 34.2675 138.75 38.8166V38.8166ZM153.375 38.8166C153.375 42.3318 150.515 45.1919 147 45.1919C143.485 45.1919 140.625 42.3318 140.625 38.8166C140.625 35.3017 143.485 32.4416 147 32.4416C150.515 32.4416 153.375 35.3013 153.375 38.8166V38.8166Z" fill="white"/>
<path d="M144.756 37.7212C144.389 37.355 143.796 37.355 143.429 37.7212C143.064 38.0874 143.064 38.6811 143.429 39.0469L145.486 41.1035C145.67 41.2867 145.909 41.3782 146.149 41.3782C146.389 41.3782 146.629 41.2867 146.812 41.1035L150.571 37.3451C150.937 36.9793 150.937 36.3857 150.571 36.0194C150.204 35.6532 149.611 35.6532 149.245 36.0194L146.149 39.115L144.756 37.7212Z" fill="white"/>
<path d="M168.188 37.8787C167.941 37.8787 167.699 37.979 167.525 38.1537C167.351 38.328 167.25 38.5697 167.25 38.8162C167.25 39.0637 167.351 39.3047 167.525 39.4801C167.699 39.6544 167.941 39.7537 168.188 39.7537C168.434 39.7537 168.676 39.6544 168.851 39.4801C169.025 39.3047 169.125 39.063 169.125 38.8162C169.125 38.5697 169.025 38.3287 168.851 38.1537C168.676 37.979 168.434 37.8787 168.188 37.8787Z" fill="white"/>
</g>
<defs>
<clipPath id="clip0">
<rect width="48" height="48" fill="white" transform="translate(123 5)"/>
</clipPath>
</defs>
</svg>
