<svg width="106" height="109" viewBox="0 0 106 109" fill="none" xmlns="http://www.w3.org/2000/svg">
<path fill-rule="evenodd" clip-rule="evenodd" d="M88.896 32.4172C88.7777 37.6948 92.5313 40.1841 92.5313 40.1841C92.5313 40.1841 96.4599 37.3169 96.5742 32.1745C96.691 27.0229 92.3733 24 92.3733 24C92.3733 24 89.0113 27.1387 88.896 32.4172ZM81.8186 44.9665C83.3704 49.8703 87.937 51.497 87.937 51.497C87.937 51.497 90.8499 48.0338 89.2618 43.0004C87.6669 37.9684 83.5705 35.9257 83.5705 35.9257C83.5705 35.9257 80.2698 40.0636 81.8186 44.9665ZM97.2799 42.5211C94.2625 46.8547 96.0079 51.0254 96.0079 51.0254C96.0079 51.0254 100.856 50.8204 103.791 46.5911C106.734 42.3642 104.822 37.442 104.822 37.442C104.822 37.442 100.295 38.1836 97.2799 42.5211ZM85.9784 56.9052C86.8987 62.1038 83.5617 65.1617 83.5617 65.1617C83.5617 65.1617 79.2428 62.9493 78.3443 57.8862C77.4564 52.8194 81.2619 49.1474 81.2619 49.1474C81.2619 49.1474 85.0573 51.7096 85.9784 56.9052ZM78.3926 65.9847C77.9626 60.7161 74.4279 57.8085 74.4279 57.8085C74.4279 57.8085 70.293 61.1071 70.7119 66.2365C71.1308 71.3659 75.2138 73.9757 75.2138 73.9757C75.2138 73.9757 78.8204 71.2494 78.3926 65.9847ZM64.2824 82.1799C64.2824 82.1799 61.1199 78.4994 62.1916 73.4606C63.2662 68.4225 68.174 66.4561 68.174 66.4561C68.174 66.4561 70.7171 70.266 69.6195 75.4374C68.519 80.608 64.2824 82.1799 64.2824 82.1799ZM93.1805 61.5591C93.1805 61.5591 92.7457 57.0547 96.8941 53.8019C101.052 50.5486 105.59 51.1752 105.59 51.1752C105.59 51.1752 105.972 56.4537 101.92 59.6251C97.8669 62.7995 93.1805 61.5591 93.1805 61.5591ZM92.1993 64.7021C87.4309 66.9555 86.8583 71.4467 86.8583 71.4467C86.8583 71.4467 91.1546 73.6953 95.8022 71.5068C100.45 69.3184 101.249 64.0801 101.249 64.0801C101.249 64.0801 96.969 62.4555 92.1993 64.7021ZM79.242 78.9842C79.242 78.9842 81.1409 74.8703 86.3601 74.1743C91.5861 73.4768 95.1658 76.325 95.1658 76.325C95.1658 76.325 92.8245 81.0762 87.7389 81.7561C82.6494 82.4382 79.242 78.9842 79.242 78.9842ZM84.4553 85.2789C84.4553 85.2789 81.2305 82.0229 75.9684 82.0848C70.7085 82.1505 68.3426 86.0065 68.3426 86.0065C68.3426 86.0065 71.3107 89.8457 76.4395 89.7871C81.5723 89.7134 84.4553 85.2789 84.4553 85.2789ZM91.2313 43.0014L93.7015 42.5107C93.7519 42.7804 98.5359 69.6463 59.8368 88.2264L58.763 85.9576C95.5994 68.2641 91.4292 44.0209 91.2313 43.0014ZM8.321 42.7333C11.3384 47.0669 9.59299 51.2376 9.59299 51.2376C9.59299 51.2376 4.74468 51.0326 1.81022 46.8033C-1.13328 42.5764 0.77857 37.6542 0.77857 37.6542C0.77857 37.6542 5.30584 38.3959 8.321 42.7333ZM17.6634 51.7093C17.6634 51.7093 22.2299 50.0826 23.7817 45.1788C25.3305 40.2759 22.0298 36.138 22.0298 36.138C22.0298 36.138 17.9334 38.1806 16.3385 43.2127C14.7505 48.2461 17.6634 51.7093 17.6634 51.7093ZM22.0386 65.3739C22.0386 65.3739 18.7016 62.316 19.6219 57.1174C20.543 51.9218 24.3384 49.3596 24.3384 49.3596C24.3384 49.3596 28.144 53.0316 27.2561 58.0984C26.3575 63.1615 22.0386 65.3739 22.0386 65.3739ZM31.1732 58.0207C31.1732 58.0207 27.6385 60.9283 27.2085 66.1969C26.7808 71.4617 30.3873 74.1879 30.3873 74.1879C30.3873 74.1879 34.4703 71.5781 34.8892 66.4487C35.3081 61.3193 31.1732 58.0207 31.1732 58.0207ZM43.4088 73.6728C44.4804 78.7116 41.3179 82.3921 41.3179 82.3921C41.3179 82.3921 37.0814 80.8203 35.9808 75.6497C34.8832 70.4782 37.4263 66.6683 37.4263 66.6683C37.4263 66.6683 42.3341 68.6347 43.4088 73.6728ZM13.0685 40.3963C13.0685 40.3963 16.8221 37.907 16.7038 32.6294C16.5885 27.351 13.2265 24.2122 13.2265 24.2122C13.2265 24.2122 8.90878 27.2351 9.02556 32.3867C9.1399 37.5292 13.0685 40.3963 13.0685 40.3963ZM8.70573 54.0141C12.8541 57.2669 12.4193 61.7713 12.4193 61.7713C12.4193 61.7713 7.73289 63.0117 3.6798 59.8373C-0.372473 56.6659 0.00961846 51.3874 0.00961846 51.3874C0.00961846 51.3874 4.54748 50.7608 8.70573 54.0141ZM18.742 71.659C18.742 71.659 18.1694 67.1677 13.401 64.9143C8.63127 62.6677 4.35162 64.2923 4.35162 64.2923C4.35162 64.2923 5.1506 69.5306 9.79817 71.7191C14.4457 73.9075 18.742 71.659 18.742 71.659ZM19.241 74.3865C24.4602 75.0825 26.3591 79.1964 26.3591 79.1964C26.3591 79.1964 22.9517 82.6504 17.8623 81.9683C12.7766 81.2884 10.4353 76.5372 10.4353 76.5372C10.4353 76.5372 14.015 73.689 19.241 74.3865ZM29.6319 82.297C24.3698 82.2351 21.1451 85.4912 21.1451 85.4912C21.1451 85.4912 24.028 89.9256 29.1608 89.9993C34.2896 90.0579 37.2577 86.2187 37.2577 86.2187C37.2577 86.2187 34.8918 82.3627 29.6319 82.297ZM11.8991 42.7229L14.3693 43.2136C14.1714 44.2331 10.0011 68.4764 46.8375 86.1698L45.7638 88.4386C7.06468 69.8585 11.8487 42.9926 11.8991 42.7229Z" fill="url(#paint0_linear)"/>
<path d="M58.4396 21.5455H47.1577L30.8899 31.9964V42.8629L46.1989 33.0831H46.5824V87H58.4396V21.5455Z" fill="white"/>
<defs>
<linearGradient id="paint0_linear" x1="54.1642" y1="24" x2="54.1642" y2="90" gradientUnits="userSpaceOnUse">
<stop stop-color="#DCDDE0"/>
<stop offset="1" stop-color="#DCDDE0" stop-opacity="0"/>
</linearGradient>
</defs>
</svg>
